<?xml version="1.0" standalone="no"?>
<!DOCTYPE svg PUBLIC "-//W3C//DTD SVG 20010904//EN"
 "http://www.w3.org/TR/2001/REC-SVG-20010904/DTD/svg10.dtd">
<svg version="1.0" xmlns="http://www.w3.org/2000/svg"
 width="512.000000pt" height="512.000000pt" viewBox="0 0 512.000000 512.000000"
 preserveAspectRatio="xMidYMid meet">
<metadata>
Created by potrace 1.14, written by Peter Selinger 2001-2017
</metadata>
<g transform="translate(0.000000,512.000000) scale(0.100000,-0.100000)"
fill="#000000" stroke="none">
<path d="M2907 3899 c-44 -10 -104 -40 -132 -66 -163 -148 -207 -174 -291
-174 -53 0 -59 2 -249 99 -70 36 -108 51 -190 73 -164 44 -311 8 -432 -109
-129 -123 -199 -259 -348 -677 -26 -71 -62 -173 -80 -225 -19 -52 -54 -169
-79 -260 -25 -91 -59 -210 -76 -265 -17 -55 -33 -107 -35 -115 -62 -238 -72
-351 -45 -495 25 -131 116 -221 279 -276 45 -15 79 -18 176 -15 198 5 283 41
355 148 42 63 56 106 115 332 43 168 83 287 143 421 24 55 93 223 153 373 122
304 146 357 181 388 69 63 177 45 218 -36 52 -102 17 -240 -190 -735 -96 -231
-143 -383 -135 -440 12 -97 91 -157 203 -156 106 1 195 69 299 228 47 71 153
271 153 287 0 3 17 43 39 88 21 46 73 160 115 253 221 487 301 620 393 661 44
19 72 18 110 -6 55 -33 75 -94 58 -180 -6 -35 -63 -154 -95 -200 -9 -14 -19
-29 -21 -35 -4 -10 -103 -188 -119 -215 -161 -261 -249 -505 -254 -707 -8
-310 146 -510 468 -608 236 -72 449 -46 554 67 88 96 -8 243 -178 274 -25 4
-47 8 -50 9 -3 1 -32 5 -65 9 -33 4 -80 15 -104 23 -195 66 -177 351 52 833
27 58 69 148 94 200 62 129 103 220 103 224 0 2 8 21 17 42 9 22 18 44 20 49
1 6 16 49 33 97 16 48 32 101 35 119 3 18 8 36 11 40 9 14 18 113 17 189 -1
228 -147 353 -413 353 -104 1 -247 -25 -300 -53 -51 -27 -105 -8 -215 76 -115
87 -205 115 -298 93z"/>
</g>
</svg>
